{"glyphs":{"0":{"ha":651,"x_min":0,"x_max":564,"o":"m 391 130 l 434 174 l 434 434 l 130 130 l 391 130 m 130 304 l 434 608 l 174 608 l 130 564 l 130 304 l 130 304 m 87 0 l 0 87 l 0 651 l 87 738 l 477 738 l 564 651 l 564 87 l 477 0 l 87 0 z "},"1":{"ha":521,"x_min":0,"x_max":434,"o":"m 43 0 l 43 130 l 174 130 l 174 564 l 130 564 l 87 521 l 0 608 l 130 738 l 304 738 l 304 130 l 434 130 l 434 0 l 43 0 z "},"2":{"ha":651,"x_min":0,"x_max":564,"o":"m 0 0 l 0 347 l 87 434 l 391 434 l 434 477 l 434 564 l 391 608 l 174 608 l 130 564 l 130 521 l 0 521 l 0 651 l 87 738 l 477 738 l 564 651 l 564 391 l 477 304 l 174 304 l 130 260 l 130 130 l 434 130 l 434 217 l 564 217 l 564 0 l 0 0 z "},"3":{"ha":651,"x_min":0,"x_max":564,"o":"m 87 0 l 0 87 l 0 217 l 130 217 l 130 174 l 174 130 l 391 130 l 434 174 l 434 260 l 391 304 l 174 304 l 174 434 l 391 434 l 434 477 l 434 564 l 391 608 l 174 608 l 130 564 l 130 521 l 0 521 l 0 651 l 87 738 l 477 738 l 564 651 l 564 434 l 499 369 l 564 304 l 564 87 l 477 0 l 87 0 z "},"4":{"ha":694,"x_min":0,"x_max":608,"o":"m 391 347 l 391 564 l 174 347 l 391 347 m 304 0 l 304 130 l 391 130 l 391 217 l 0 217 l 0 347 l 391 738 l 521 738 l 521 347 l 608 347 l 608 217 l 521 217 l 521 130 l 608 130 l 608 0 l 304 0 z "},"5":{"ha":651,"x_min":0,"x_max":564,"o":"m 87 0 l 0 87 l 0 217 l 130 217 l 130 174 l 174 130 l 391 130 l 434 174 l 434 304 l 391 347 l 0 347 l 0 738 l 543 738 l 543 608 l 130 608 l 130 477 l 477 477 l 564 391 l 564 87 l 477 0 l 87 0 z "},"6":{"ha":651,"x_min":0,"x_max":564,"o":"m 391 130 l 434 174 l 434 304 l 391 347 l 130 347 l 130 174 l 174 130 l 391 130 m 87 0 l 0 87 l 0 651 l 87 738 l 543 738 l 543 608 l 174 608 l 130 564 l 130 477 l 477 477 l 564 391 l 564 87 l 477 0 l 87 0 z "},"7":{"ha":608,"x_min":0,"x_max":521,"o":"m 65 0 l 369 608 l 130 608 l 130 521 l 0 521 l 0 738 l 521 738 l 521 608 l 217 0 l 65 0 z "},"8":{"ha":651,"x_min":0,"x_max":564,"o":"m 391 130 l 434 174 l 434 260 l 391 304 l 174 304 l 130 260 l 130 174 l 174 130 l 391 130 m 391 434 l 434 477 l 434 564 l 391 608 l 174 608 l 130 564 l 130 477 l 174 434 l 391 434 m 87 0 l 0 87 l 0 304 l 65 369 l 0 434 l 0 651 l 87 738 l 477 738 l 564 651 l 564 434 l 499 369 l 564 304 l 564 87 l 477 0 l 87 0 z "},"9":{"ha":651,"x_min":0,"x_max":564,"o":"m 434 434 l 434 564 l 391 608 l 174 608 l 130 564 l 130 477 l 174 434 l 434 434 m 87 0 l 0 87 l 0 217 l 130 217 l 130 174 l 174 130 l 391 130 l 434 174 l 434 304 l 87 304 l 0 391 l 0 651 l 87 738 l 477 738 l 564 651 l 564 87 l 477 0 l 87 0 z "}," ":{"ha":260,"x_min":0,"x_max":0,"o":""},"!":{"ha":217,"x_min":0,"x_max":130,"o":"m 0 0 l 0 130 l 130 130 l 130 0 l 0 0 m 43 217 l 0 260 l 0 738 l 130 738 l 130 260 l 87 217 l 43 217 z "},"\"":{"ha":434,"x_min":0,"x_max":347,"o":"m 0 521 l 0 781 l 130 781 l 130 651 l 0 521 l 0 521 m 217 521 l 217 781 l 347 781 l 347 651 l 217 521 l 217 521 z "},"#":{"ha":955,"x_min":0,"x_max":868,"o":"m 477 304 l 543 434 l 391 434 l 326 304 l 477 304 m 22 0 l 109 174 l 0 174 l 0 304 l 174 304 l 239 434 l 130 434 l 130 564 l 304 564 l 412 781 l 564 781 l 456 564 l 608 564 l 716 781 l 868 781 l 760 564 l 868 564 l 868 434 l 694 434 l 629 304 l 738 304 l 738 174 l 564 174 l 477 0 l 326 0 l 412 174 l 260 174 l 174 0 l 22 0 z "},"$":{"ha":781,"x_min":0,"x_max":694,"o":"m 391 130 l 391 304 l 304 304 l 304 130 l 391 130 m 521 130 l 564 174 l 564 260 l 521 304 l 477 304 l 477 130 l 521 130 m 217 434 l 217 608 l 174 608 l 130 564 l 130 477 l 174 434 l 217 434 m 391 434 l 391 608 l 304 608 l 304 434 l 391 434 m 217 -130 l 217 0 l 130 0 l 0 130 l 87 217 l 174 130 l 217 130 l 217 304 l 87 304 l 0 391 l 0 608 l 130 738 l 217 738 l 217 868 l 304 868 l 304 738 l 391 738 l 391 868 l 477 868 l 477 738 l 564 738 l 694 608 l 608 521 l 521 608 l 477 608 l 477 434 l 608 434 l 694 347 l 694 130 l 564 0 l 477 0 l 477 -130 l 391 -130 l 391 0 l 304 0 l 304 -130 l 217 -130 z "},"%":{"ha":955,"x_min":0,"x_max":868,"o":"m 694 87 l 781 174 l 694 260 l 608 174 l 694 87 l 694 87 m 608 0 l 521 87 l 521 260 l 608 347 l 781 347 l 868 260 l 868 87 l 781 0 l 608 0 m 174 477 l 260 564 l 174 651 l 87 564 l 174 477 l 174 477 m 87 391 l 0 477 l 0 651 l 87 738 l 260 738 l 347 651 l 347 477 l 260 391 l 87 391 m 174 0 l 543 738 l 694 738 l 326 0 l 174 0 z "},"&":{"ha":694,"x_min":0,"x_max":651,"o":"m 391 130 l 391 304 l 174 304 l 130 260 l 130 174 l 174 130 l 391 130 m 87 0 l 0 87 l 0 304 l 65 369 l 0 434 l 0 651 l 87 738 l 391 738 l 391 608 l 174 608 l 130 564 l 130 477 l 174 434 l 651 434 l 651 304 l 521 304 l 521 0 l 87 0 z "},"'":{"ha":217,"x_min":0,"x_max":130,"o":"m 0 521 l 0 781 l 130 781 l 130 651 l 0 521 l 0 521 z "},"(":{"ha":347,"x_min":0,"x_max":260,"o":"m 130 -217 l 0 -87 l 0 694 l 130 825 l 260 825 l 260 694 l 174 694 l 130 651 l 130 -43 l 174 -87 l 260 -87 l 260 -217 l 130 -217 z "},")":{"ha":347,"x_min":0,"x_max":260,"o":"m 0 -217 l 0 -87 l 87 -87 l 130 -43 l 130 651 l 87 694 l 0 694 l 0 825 l 130 825 l 260 694 l 260 -87 l 130 -217 l 0 -217 z "},"*":{"ha":434,"x_min":0,"x_max":347,"o":"m 43 391 l 0 434 l 87 521 l 0 521 l 0 608 l 87 608 l 0 694 l 43 738 l 130 651 l 130 738 l 217 738 l 217 651 l 304 738 l 347 694 l 260 608 l 347 608 l 347 521 l 260 521 l 347 434 l 304 391 l 217 477 l 217 391 l 130 391 l 130 477 l 43 391 l 43 391 z "},"+":{"ha":825,"x_min":0,"x_max":738,"o":"m 304 0 l 304 304 l 0 304 l 0 434 l 304 434 l 304 738 l 434 738 l 434 434 l 738 434 l 738 304 l 434 304 l 434 0 l 304 0 z "},",":{"ha":217,"x_min":-65,"x_max":130,"o":"m 0 -130 l -65 -65 l 0 0 l 0 130 l 130 130 l 130 0 l 0 -130 l 0 -130 z "},"-":{"ha":608,"x_min":0,"x_max":521,"o":"m 0 304 l 0 434 l 521 434 l 521 304 l 0 304 z "},".":{"ha":217,"x_min":0,"x_max":130,"o":"m 0 0 l 0 130 l 130 130 l 130 0 l 0 0 z "},"/":{"ha":564,"x_min":0,"x_max":521,"o":"m 0 0 l 369 738 l 521 738 l 152 0 l 0 0 z "},":":{"ha":217,"x_min":0,"x_max":130,"o":"m 0 43 l 0 174 l 130 174 l 130 43 l 0 43 m 0 391 l 0 521 l 130 521 l 130 391 l 0 391 z "},";":{"ha":304,"x_min":22,"x_max":217,"o":"m 87 -87 l 22 -22 l 87 43 l 87 174 l 217 174 l 217 43 l 87 -87 l 87 -87 m 87 391 l 87 521 l 217 521 l 217 391 l 87 391 z "},"<":{"ha":434,"x_min":-22,"x_max":347,"o":"m 217 43 l 217 87 l -22 326 l 217 564 l 217 608 l 347 608 l 347 521 l 152 326 l 347 130 l 347 43 l 217 43 z "},"=":{"ha":608,"x_min":0,"x_max":521,"o":"m 0 87 l 0 217 l 521 217 l 521 87 l 0 87 m 0 347 l 0 477 l 521 477 l 521 347 l 0 347 z "},">":{"ha":434,"x_min":0,"x_max":369,"o":"m 0 43 l 0 130 l 195 326 l 0 521 l 0 608 l 130 608 l 130 564 l 369 326 l 130 87 l 130 43 l 0 43 z "},"?":{"ha":651,"x_min":0,"x_max":564,"o":"m 174 0 l 174 130 l 304 130 l 304 0 l 174 0 m 174 217 l 174 391 l 217 434 l 391 434 l 434 477 l 434 564 l 391 608 l 174 608 l 130 564 l 130 521 l 0 521 l 0 651 l 87 738 l 477 738 l 564 651 l 564 391 l 477 304 l 304 304 l 304 217 l 174 217 z "},"@":{"ha":955,"x_min":0,"x_max":868,"o":"m 391 260 l 521 391 l 521 434 l 347 434 l 347 260 l 391 260 m 87 -87 l 0 0 l 0 694 l 87 781 l 781 781 l 868 694 l 868 217 l 781 130 l 521 130 l 521 217 l 434 130 l 217 130 l 217 521 l 260 564 l 651 564 l 651 260 l 694 260 l 738 304 l 738 608 l 694 651 l 174 651 l 130 608 l 130 87 l 174 43 l 868 43 l 868 -87 l 87 -87 z "},"A":{"ha":825,"x_min":0,"x_max":738,"o":"m 521 391 l 521 564 l 477 608 l 260 608 l 217 564 l 217 391 l 521 391 m 0 0 l 0 130 l 87 130 l 87 651 l 174 738 l 564 738 l 651 651 l 651 130 l 738 130 l 738 0 l 434 0 l 434 130 l 521 130 l 521 260 l 217 260 l 217 130 l 304 130 l 304 0 l 0 0 z "},"B":{"ha":694,"x_min":0,"x_max":608,"o":"m 434 130 l 477 174 l 477 260 l 434 304 l 217 304 l 217 130 l 434 130 m 434 434 l 477 477 l 477 564 l 434 608 l 217 608 l 217 434 l 434 434 m 0 0 l 0 130 l 87 130 l 87 608 l 0 608 l 0 738 l 521 738 l 608 651 l 608 434 l 543 369 l 608 304 l 608 87 l 521 0 l 0 0 z "},"C":{"ha":608,"x_min":0,"x_max":521,"o":"m 87 0 l 0 87 l 0 651 l 87 738 l 521 738 l 521 521 l 391 521 l 391 608 l 174 608 l 130 564 l 130 174 l 174 130 l 391 130 l 391 217 l 521 217 l 521 0 l 87 0 z "},"D":{"ha":694,"x_min":0,"x_max":608,"o":"m 434 130 l 477 174 l 477 564 l 434 608 l 217 608 l 217 130 l 434 130 m 0 0 l 0 130 l 87 130 l 87 608 l 0 608 l 0 738 l 521 738 l 608 651 l 608 87 l 521 0 l 0 0 z "},"E":{"ha":694,"x_min":0,"x_max":608,"o":"m 0 0 l 0 130 l 87 130 l 87 608 l 0 608 l 0 738 l 608 738 l 608 521 l 477 521 l 477 608 l 217 608 l 217 434 l 434 434 l 434 304 l 217 304 l 217 130 l 477 130 l 477 217 l 608 217 l 608 0 l 0 0 z "},"F":{"ha":694,"x_min":0,"x_max":608,"o":"m 0 0 l 0 130 l 87 130 l 87 564 l 0 564 l 0 738 l 608 738 l 608 521 l 477 521 l 477 608 l 217 608 l 217 434 l 304 434 l 304 477 l 434 477 l 434 260 l 304 260 l 304 304 l 217 304 l 217 130 l 304 130 l 304 0 l 0 0 z "},"G":{"ha":738,"x_min":0,"x_max":651,"o":"m 87 0 l 0 87 l 0 651 l 87 738 l 564 738 l 564 521 l 434 521 l 434 608 l 174 608 l 130 564 l 130 174 l 174 130 l 434 130 l 434 304 l 347 304 l 347 434 l 651 434 l 651 304 l 564 304 l 564 0 l 87 0 z "},"H":{"ha":825,"x_min":0,"x_max":738,"o":"m 0 0 l 0 130 l 87 130 l 87 608 l 0 608 l 0 738 l 304 738 l 304 608 l 217 608 l 217 434 l 521 434 l 521 608 l 434 608 l 434 738 l 738 738 l 738 608 l 651 608 l 651 130 l 738 130 l 738 0 l 434 0 l 434 130 l 521 130 l 521 304 l 217 304 l 217 130 l 304 130 l 304 0 l 0 0 z "},"I":{"ha":391,"x_min":0,"x_max":304,"o":"m 0 0 l 0 130 l 87 130 l 87 608 l 0 608 l 0 738 l 304 738 l 304 608 l 217 608 l 217 130 l 304 130 l 304 0 l 0 0 z "},"J":{"ha":694,"x_min":0,"x_max":608,"o":"m 87 0 l 0 87 l 0 304 l 130 304 l 130 174 l 174 130 l 347 130 l 391 174 l 391 608 l 174 608 l 174 738 l 608 738 l 608 608 l 521 608 l 521 87 l 434 0 l 87 0 z "},"K":{"ha":781,"x_min":0,"x_max":694,"o":"m 0 0 l 0 130 l 87 130 l 87 608 l 0 608 l 0 738 l 304 738 l 304 608 l 217 608 l 217 391 l 434 608 l 391 608 l 391 738 l 694 738 l 694 608 l 608 608 l 369 369 l 608 130 l 694 130 l 694 0 l 391 0 l 391 130 l 434 130 l 282 282 l 217 217 l 217 130 l 304 130 l 304 0 l 0 0 z "},"L":{"ha":651,"x_min":0,"x_max":564,"o":"m 0 0 l 0 130 l 87 130 l 87 608 l 0 608 l 0 738 l 304 738 l 304 608 l 217 608 l 217 130 l 434 130 l 434 260 l 564 260 l 564 0 l 0 0 z "},"M":{"ha":1085,"x_min":0,"x_max":998,"o":"m 0 0 l 0 130 l 87 130 l 87 608 l 0 608 l 0 738 l 347 738 l 499 586 l 651 738 l 998 738 l 998 608 l 911 608 l 911 130 l 998 130 l 998 0 l 781 0 l 781 608 l 694 608 l 564 477 l 564 130 l 651 130 l 651 0 l 347 0 l 347 130 l 434 130 l 434 477 l 304 608 l 217 608 l 217 0 l 0 0 z "},"N":{"ha":825,"x_min":0,"x_max":738,"o":"m 0 0 l 0 130 l 87 130 l 87 608 l 0 608 l 0 738 l 217 738 l 521 434 l 521 738 l 738 738 l 738 608 l 651 608 l 651 130 l 738 130 l 738 0 l 434 0 l 434 130 l 521 130 l 521 260 l 217 564 l 217 130 l 304 130 l 304 0 l 0 0 z "},"O":{"ha":651,"x_min":0,"x_max":564,"o":"m 391 130 l 434 174 l 434 564 l 391 608 l 174 608 l 130 564 l 130 174 l 174 130 l 391 130 m 87 0 l 0 87 l 0 651 l 87 738 l 477 738 l 564 651 l 564 87 l 477 0 l 87 0 z "},"P":{"ha":694,"x_min":0,"x_max":608,"o":"m 434 391 l 477 434 l 477 564 l 434 608 l 217 608 l 217 391 l 434 391 m 0 0 l 0 130 l 87 130 l 87 608 l 0 608 l 0 738 l 521 738 l 608 651 l 608 391 l 477 260 l 217 260 l 217 130 l 304 130 l 304 0 l 0 0 z "},"Q":{"ha":651,"x_min":0,"x_max":564,"o":"m 391 130 l 434 174 l 434 564 l 391 608 l 174 608 l 130 564 l 130 174 l 174 130 l 391 130 m 477 -174 l 304 0 l 87 0 l 0 87 l 0 651 l 87 738 l 477 738 l 564 651 l 564 87 l 477 0 l 564 -87 l 477 -174 l 477 -174 z "},"R":{"ha":694,"x_min":0,"x_max":651,"o":"m 434 391 l 477 434 l 477 564 l 434 608 l 217 608 l 217 391 l 434 391 m 564 -43 l 217 304 l 217 130 l 304 130 l 304 0 l 0 0 l 0 130 l 87 130 l 87 608 l 0 608 l 0 738 l 521 738 l 608 651 l 608 391 l 477 260 l 434 260 l 651 43 l 564 -43 l 564 -43 z "},"S":{"ha":651,"x_min":0,"x_max":564,"o":"m 130 0 l 0 130 l 87 217 l 174 130 l 391 130 l 434 174 l 434 260 l 391 304 l 87 304 l 0 391 l 0 608 l 130 738 l 434 738 l 564 608 l 477 521 l 391 608 l 174 608 l 130 564 l 130 477 l 174 434 l 477 434 l 564 347 l 564 130 l 434 0 l 130 0 z "},"T":{"ha":651,"x_min":0,"x_max":564,"o":"m 130 0 l 130 130 l 217 130 l 217 608 l 130 608 l 130 521 l 0 521 l 0 738 l 564 738 l 564 521 l 434 521 l 434 608 l 347 608 l 347 130 l 434 130 l 434 0 l 130 0 z "},"U":{"ha":825,"x_min":0,"x_max":738,"o":"m 174 0 l 87 87 l 87 608 l 0 608 l 0 738 l 304 738 l 304 608 l 217 608 l 217 174 l 260 130 l 477 130 l 521 174 l 521 608 l 434 608 l 434 738 l 738 738 l 738 608 l 651 608 l 651 87 l 564 0 l 174 0 z "},"V":{"ha":825,"x_min":0,"x_max":738,"o":"m 304 0 l 87 217 l 87 608 l 0 608 l 0 738 l 304 738 l 304 608 l 217 608 l 217 260 l 369 109 l 521 260 l 521 608 l 434 608 l 434 738 l 738 738 l 738 608 l 651 608 l 651 217 l 434 0 l 304 0 z "},"W":{"ha":1085,"x_min":0,"x_max":998,"o":"m 174 0 l 87 87 l 87 608 l 0 608 l 0 738 l 217 738 l 217 174 l 260 130 l 304 130 l 434 260 l 434 738 l 564 738 l 564 260 l 694 130 l 738 130 l 781 174 l 781 738 l 998 738 l 998 608 l 911 608 l 911 87 l 825 0 l 651 0 l 499 152 l 347 0 l 174 0 z "},"X":{"ha":911,"x_min":0,"x_max":825,"o":"m 0 0 l 0 130 l 87 130 l 326 369 l 87 608 l 0 608 l 0 738 l 347 738 l 347 608 l 260 608 l 412 456 l 564 608 l 477 608 l 477 738 l 825 738 l 825 608 l 738 608 l 499 369 l 738 130 l 825 130 l 825 0 l 477 0 l 477 130 l 564 130 l 412 282 l 260 130 l 347 130 l 347 0 l 0 0 z "},"Y":{"ha":825,"x_min":0,"x_max":738,"o":"m 217 0 l 217 130 l 304 130 l 304 260 l 87 477 l 87 608 l 0 608 l 0 738 l 304 738 l 304 608 l 217 608 l 217 521 l 369 369 l 521 521 l 521 608 l 434 608 l 434 738 l 738 738 l 738 608 l 651 608 l 651 477 l 434 260 l 434 130 l 521 130 l 521 0 l 217 0 z "},"Z":{"ha":738,"x_min":0,"x_max":651,"o":"m 0 0 l 0 130 l 477 608 l 130 608 l 130 521 l 0 521 l 0 738 l 651 738 l 651 608 l 174 130 l 521 130 l 521 217 l 651 217 l 651 0 l 0 0 z "},"[":{"ha":391,"x_min":0,"x_max":304,"o":"m 0 -304 l 0 738 l 304 738 l 304 608 l 130 608 l 130 -174 l 304 -174 l 304 -304 l 0 -304 z "},"\\":{"ha":564,"x_min":0,"x_max":521,"o":"m 369 0 l 0 738 l 152 738 l 521 0 l 369 0 z "},"]":{"ha":391,"x_min":0,"x_max":304,"o":"m 0 -304 l 0 -174 l 174 -174 l 174 608 l 0 608 l 0 738 l 304 738 l 304 -304 l 0 -304 z "},"^":{"ha":651,"x_min":0,"x_max":564,"o":"m 0 391 l 0 521 l 43 521 l 282 760 l 521 521 l 564 521 l 564 391 l 477 391 l 282 586 l 87 391 l 0 391 z "},"_":{"ha":608,"x_min":87,"x_max":521,"o":"m 87 -87 l 87 43 l 521 43 l 521 -87 l 87 -87 z "},"`":{"ha":260,"x_min":-22,"x_max":195,"o":"m 87 521 l -22 738 l 87 738 l 195 521 l 87 521 z "},"a":{"ha":651,"x_min":0,"x_max":564,"o":"m 347 130 l 347 434 l 174 434 l 130 391 l 130 174 l 174 130 l 347 130 m 87 0 l 0 87 l 0 477 l 87 564 l 564 564 l 564 434 l 477 434 l 477 130 l 564 130 l 564 0 l 87 0 z "},"b":{"ha":694,"x_min":0,"x_max":608,"o":"m 434 130 l 477 174 l 477 391 l 434 434 l 217 434 l 217 130 l 434 130 m 0 0 l 0 130 l 87 130 l 87 738 l 0 738 l 0 868 l 217 868 l 217 564 l 521 564 l 608 477 l 608 87 l 521 0 l 0 0 z "},"c":{"ha":564,"x_min":0,"x_max":477,"o":"m 87 0 l 0 87 l 0 477 l 87 564 l 477 564 l 477 347 l 347 347 l 347 434 l 174 434 l 130 391 l 130 174 l 174 130 l 347 130 l 347 217 l 477 217 l 477 0 l 87 0 z "},"d":{"ha":694,"x_min":0,"x_max":608,"o":"m 391 130 l 391 434 l 174 434 l 130 391 l 130 174 l 174 130 l 391 130 m 87 0 l 0 87 l 0 477 l 87 564 l 391 564 l 391 868 l 608 868 l 608 738 l 521 738 l 521 130 l 608 130 l 608 0 l 87 0 z "},"e":{"ha":608,"x_min":0,"x_max":521,"o":"m 391 347 l 391 391 l 347 434 l 174 434 l 130 391 l 130 347 l 391 347 m 87 0 l 0 87 l 0 477 l 87 564 l 434 564 l 521 477 l 521 304 l 434 217 l 130 217 l 130 174 l 174 130 l 499 130 l 499 0 l 87 0 z "},"f":{"ha":434,"x_min":0,"x_max":347,"o":"m 0 0 l 0 130 l 87 130 l 87 434 l 0 434 l 0 564 l 87 564 l 87 738 l 217 868 l 347 868 l 347 738 l 260 738 l 217 694 l 217 564 l 304 564 l 304 434 l 217 434 l 217 130 l 304 130 l 304 0 l 0 0 z "},"g":{"ha":694,"x_min":0,"x_max":608,"o":"m 391 130 l 391 434 l 174 434 l 130 391 l 130 174 l 174 130 l 391 130 m 0 -304 l 0 -174 l 347 -174 l 391 -130 l 391 0 l 87 0 l 0 87 l 0 477 l 87 564 l 608 564 l 608 434 l 521 434 l 521 -174 l 391 -304 l 0 -304 z "},"h":{"ha":781,"x_min":0,"x_max":694,"o":"m 0 0 l 0 130 l 87 130 l 87 738 l 0 738 l 0 868 l 217 868 l 217 564 l 521 564 l 608 477 l 608 130 l 694 130 l 694 0 l 477 0 l 477 391 l 434 434 l 217 434 l 217 130 l 304 130 l 304 0 l 0 0 z "},"i":{"ha":391,"x_min":0,"x_max":304,"o":"m 0 0 l 0 130 l 87 130 l 87 434 l 0 434 l 0 564 l 217 564 l 217 130 l 304 130 l 304 0 l 0 0 m 87 651 l 87 781 l 217 781 l 217 651 l 87 651 z "},"j":{"ha":391,"x_min":0,"x_max":304,"o":"m 0 -304 l 0 -174 l 130 -174 l 174 -130 l 174 434 l 87 434 l 87 564 l 304 564 l 304 -174 l 174 -304 l 0 -304 m 174 651 l 174 781 l 304 781 l 304 651 l 174 651 z "},"k":{"ha":738,"x_min":0,"x_max":651,"o":"m 0 0 l 0 130 l 87 130 l 87 738 l 0 738 l 0 868 l 217 868 l 217 477 l 326 369 l 477 521 l 477 564 l 608 564 l 608 477 l 412 282 l 564 130 l 651 130 l 651 0 l 434 0 l 434 87 l 217 304 l 217 0 l 0 0 z "},"l":{"ha":391,"x_min":0,"x_max":304,"o":"m 0 0 l 0 130 l 87 130 l 87 738 l 0 738 l 0 868 l 217 868 l 217 130 l 304 130 l 304 0 l 0 0 z "},"m":{"ha":1085,"x_min":0,"x_max":998,"o":"m 0 0 l 0 130 l 87 130 l 87 434 l 0 434 l 0 564 l 217 564 l 217 434 l 347 564 l 521 564 l 564 521 l 564 434 l 694 564 l 868 564 l 911 521 l 911 130 l 998 130 l 998 0 l 781 0 l 781 434 l 738 434 l 564 260 l 564 130 l 651 130 l 651 0 l 434 0 l 434 434 l 391 434 l 217 260 l 217 130 l 304 130 l 304 0 l 0 0 z "},"n":{"ha":781,"x_min":0,"x_max":694,"o":"m 0 0 l 0 130 l 87 130 l 87 434 l 0 434 l 0 564 l 217 564 l 217 434 l 347 564 l 521 564 l 608 477 l 608 130 l 694 130 l 694 0 l 477 0 l 477 391 l 434 434 l 391 434 l 217 260 l 217 130 l 304 130 l 304 0 l 0 0 z "},"o":{"ha":608,"x_min":0,"x_max":521,"o":"m 347 130 l 391 174 l 391 391 l 347 434 l 174 434 l 130 391 l 130 174 l 174 130 l 347 130 m 87 0 l 0 87 l 0 477 l 87 564 l 434 564 l 521 477 l 521 87 l 434 0 l 87 0 z "},"p":{"ha":694,"x_min":0,"x_max":608,"o":"m 434 130 l 477 174 l 477 391 l 434 434 l 217 434 l 217 130 l 434 130 m 0 -304 l 0 -174 l 87 -174 l 87 434 l 0 434 l 0 564 l 521 564 l 608 477 l 608 87 l 521 0 l 217 0 l 217 -174 l 304 -174 l 304 -304 l 0 -304 z "},"q":{"ha":694,"x_min":0,"x_max":608,"o":"m 391 130 l 391 434 l 174 434 l 130 391 l 130 174 l 174 130 l 391 130 m 304 -304 l 304 -174 l 391 -174 l 391 0 l 87 0 l 0 87 l 0 477 l 87 564 l 608 564 l 608 434 l 521 434 l 521 -174 l 608 -174 l 608 -304 l 304 -304 z "},"r":{"ha":564,"x_min":0,"x_max":477,"o":"m 0 0 l 0 130 l 87 130 l 87 434 l 0 434 l 0 564 l 217 564 l 217 477 l 304 564 l 477 564 l 477 434 l 347 434 l 217 304 l 217 130 l 304 130 l 304 0 l 0 0 z "},"s":{"ha":564,"x_min":0,"x_max":477,"o":"m 22 0 l 22 130 l 304 130 l 347 174 l 304 217 l 87 217 l 0 304 l 0 477 l 87 564 l 456 564 l 456 434 l 174 434 l 130 391 l 174 347 l 391 347 l 477 260 l 477 87 l 391 0 l 22 0 z "},"t":{"ha":477,"x_min":0,"x_max":391,"o":"m 174 0 l 87 87 l 87 434 l 0 434 l 0 564 l 87 564 l 87 738 l 217 738 l 217 564 l 391 564 l 391 434 l 217 434 l 217 174 l 260 130 l 391 130 l 391 0 l 174 0 z "},"u":{"ha":781,"x_min":0,"x_max":694,"o":"m 174 0 l 87 87 l 87 434 l 0 434 l 0 564 l 217 564 l 217 174 l 260 130 l 434 130 l 477 174 l 477 564 l 694 564 l 694 434 l 608 434 l 608 87 l 521 0 l 174 0 z "},"v":{"ha":781,"x_min":0,"x_max":694,"o":"m 304 0 l 87 217 l 87 434 l 0 434 l 0 564 l 217 564 l 217 304 l 347 174 l 477 304 l 477 564 l 694 564 l 694 434 l 608 434 l 608 217 l 391 0 l 304 0 z "},"w":{"ha":998,"x_min":0,"x_max":911,"o":"m 174 0 l 87 87 l 87 434 l 0 434 l 0 564 l 217 564 l 217 174 l 260 130 l 347 130 l 391 174 l 391 564 l 521 564 l 521 174 l 564 130 l 651 130 l 694 174 l 694 564 l 911 564 l 911 434 l 825 434 l 825 87 l 738 0 l 521 0 l 456 65 l 391 0 l 174 0 z "},"x":{"ha":738,"x_min":0,"x_max":651,"o":"m 0 0 l 0 130 l 87 130 l 239 282 l 87 434 l 0 434 l 0 564 l 217 564 l 217 477 l 326 369 l 434 477 l 434 564 l 651 564 l 651 434 l 564 434 l 412 282 l 564 130 l 651 130 l 651 0 l 434 0 l 434 87 l 326 195 l 217 87 l 217 0 l 0 0 z "},"y":{"ha":781,"x_min":0,"x_max":694,"o":"m 87 -304 l 87 -174 l 434 -174 l 477 -130 l 477 0 l 174 0 l 87 87 l 87 434 l 0 434 l 0 564 l 217 564 l 217 174 l 260 130 l 477 130 l 477 564 l 694 564 l 694 434 l 608 434 l 608 -174 l 477 -304 l 87 -304 z "},"z":{"ha":564,"x_min":0,"x_max":477,"o":"m 0 0 l 0 130 l 304 434 l 130 434 l 130 347 l 0 347 l 0 564 l 477 564 l 477 434 l 174 130 l 347 130 l 347 217 l 477 217 l 477 0 l 0 0 z "},"{":{"ha":434,"x_min":0,"x_max":347,"o":"m 217 -217 l 87 -87 l 87 174 l 0 260 l 0 347 l 87 434 l 87 694 l 217 825 l 347 825 l 347 694 l 260 694 l 217 651 l 217 434 l 130 347 l 130 260 l 217 174 l 217 -43 l 260 -87 l 347 -87 l 347 -217 l 217 -217 z "},"|":{"ha":217,"x_min":43,"x_max":174,"o":"m 43 0 l 43 781 l 174 781 l 174 0 l 43 0 z "},"}":{"ha":434,"x_min":0,"x_max":347,"o":"m 0 -217 l 0 -87 l 87 -87 l 130 -43 l 130 174 l 217 260 l 217 347 l 130 434 l 130 651 l 87 694 l 0 694 l 0 825 l 130 825 l 260 694 l 260 434 l 347 347 l 347 260 l 260 174 l 260 -87 l 130 -217 l 0 -217 z "},"~":{"ha":564,"x_min":0,"x_max":477,"o":"m 0 260 l 0 391 l 43 434 l 217 434 l 260 391 l 391 391 l 434 434 l 477 434 l 477 304 l 434 260 l 260 260 l 217 304 l 87 304 l 43 260 l 0 260 z "},"‘":{"ha":217,"x_min":0,"x_max":174,"o":"m 0 564 l 0 694 l 87 781 l 174 781 l 87 694 l 130 694 l 130 564 l 0 564 z "},"’":{"ha":260,"x_min":0,"x_max":174,"o":"m 0 564 l 87 651 l 43 651 l 43 781 l 174 781 l 174 651 l 87 564 l 0 564 z "},"“":{"ha":434,"x_min":0,"x_max":391,"o":"m 0 564 l 0 694 l 87 781 l 174 781 l 87 694 l 130 694 l 130 564 l 0 564 m 217 564 l 217 694 l 304 781 l 391 781 l 304 694 l 347 694 l 347 564 l 217 564 z "},"”":{"ha":477,"x_min":0,"x_max":391,"o":"m 0 564 l 87 651 l 43 651 l 43 781 l 174 781 l 174 651 l 87 564 l 0 564 m 217 564 l 304 651 l 260 651 l 260 781 l 391 781 l 391 651 l 304 564 l 217 564 z "}}}
